<?xml version="1.0" encoding="utf-8"?>
<svg xmlns="http://www.w3.org/2000/svg" viewBox="0 0 500 500">
  <path d="M 398.771 237.004 L 362.533 249.891 C 360.076 271.764 351.44 291.767 338.41 308.115 L 354.925 342.857 L 320.183 326.342 C 303.835 339.372 283.832 348.008 261.959 350.465 L 249.072 386.703 L 236.185 350.465 C 214.312 348.008 194.309 339.372 177.961 326.342 L 143.219 342.857 L 159.734 308.115 C 146.704 291.767 138.068 271.764 135.611 249.891 L 99.373 237.004 L 135.611 224.117 C 138.068 202.244 146.704 182.241 159.734 165.893 L 143.219 131.151 L 177.961 147.666 C 194.309 134.636 214.312 126 236.185 123.543 L 249.072 87.305 L 261.959 123.543 C 283.832 126 303.835 134.636 320.183 147.666 L 354.925 131.151 L 338.41 165.893 C 351.44 182.241 360.076 202.244 362.533 224.117 L 398.771 237.004 Z" style="stroke: rgb(0, 0, 0); fill-rule: nonzero;"/>
</svg>